<svg id="Layer_1" data-name="Layer 1" xmlns="http://www.w3.org/2000/svg" viewBox="0 0 575.11 341.02"><defs><style>.cls-1{fill:#d67f87;}.cls-2{fill:#8e5359;}.cls-3{fill:#8d5359;}.cls-4{fill:#865e62;}.cls-5{fill:#7f5f62;}.cls-6{fill:#cb5c79;}.cls-7{fill:#e39ca2;}</style></defs><title>bob</title><path d="M443.05,388.71c8.31-8.68,17-16.91,27-23.63,5.65-3.8,11.26-7.78,18.29-8.79,7.49-1.08,14.54.83,21.44,3.32,10.84,3.91,20.77,9.8,31.06,14.91,10.57,5.25,21.27,9.89,33.41,10A58.38,58.38,0,0,0,595.74,381c4-1.51,7.4-.23,8.72,3.08,1.41,3.52-.33,6.77-4.55,8.33-17.34,6.38-34.52,5.65-51.59-1.12-12.38-4.91-23.75-11.88-35.83-17.41a68.79,68.79,0,0,0-16.67-5.43,17.13,17.13,0,0,0-12,2.34c-13.36,7.71-24.38,18.15-34.75,29.4-1.45,1.58-2.62,3.48-4.69,4.38-1.59.7-.9,2.07-.88,3.13A387.48,387.48,0,0,1,442,454.08c-2.86,29.43-7.65,58.43-20.13,85.62-3,6.43-6.53,12.52-9.93,18.71-2.39,4.34-5.85,6.27-10.73,6.47q-32.56,1.32-65.13,1.26-110.51-.14-221-.41c-14.76,0-29.51.57-44.24,1.38l-1.44.07c-9.95.5-10.45.09-14.77-8.87-10-20.72-17.52-42.27-21-65-2.44-16.14-3.19-32.48-3.6-48.78-.51-20.75-.39-41.53,1.67-62.2,1.36-13.71,4.56-27.16,7.39-40.64C44.79,314.81,51,288.12,58.8,261.81a8.34,8.34,0,0,1,6.16-6.2c21.81-6.78,44.13-11,66.78-13.69,23.09-2.77,46.12-6,69.19-8.92,39.08-4.92,78.2-8.17,117.69-6a877.82,877.82,0,0,1,92.92,10c5.27.85,8.06,5.06,9.35,9.73,4,14.43,7.05,29.1,9.62,43.85,5.48,31.56,9.29,63.33,11.71,95.26C442.3,386.73,442.14,387.74,443.05,388.71Z" transform="translate(-29.83 -226.3)"/><path class="cls-1" d="M150.18,545c-3.74-3.91-7.28-7.66-11.68-10.46-5.68-3.62-8.31-3.4-12.92,1.34S116.77,546,114.21,552.3c-.56,1.37-1.47,1.32-2.56,1.32-14,.06-28.06.69-42.07,1.51-2.54.15-3.5-.88-4.49-2.94a220.23,220.23,0,0,1-19.45-60.25c-2-12.42-2.29-25.05-3.09-37.61-1.43-22.43-.57-44.85.84-67.23.81-12.79,3.91-25.3,6.52-37.83,5.53-26.58,11.43-53.08,19.1-79.16a5.64,5.64,0,0,1,4.35-4.43c21.2-6.23,42.88-9.8,64.8-12.32,18.91-2.17,37.75-5,56.64-7.38,19.73-2.5,39.47-4.87,59.32-6.28a408.69,408.69,0,0,1,41.69-1.32c22.29.7,44.56,1.54,66.75,4,14.76,1.66,29.43,3.91,44.14,5.93,2,.27,2.55,1.2,3,2.88,4.4,17.16,7.91,34.51,10.76,52,3.57,21.88,6.12,43.89,8.35,65.93,4.56,45,3.9,89.77-6.94,134a173.45,173.45,0,0,1-19.09,47.08c-1.22,2.07-2.59,2.66-4.86,2.74-64.76,2.25-129.53.86-194.3.76-1.87,0-3.29-.12-3.57-2.4a3.4,3.4,0,0,0-1.17-1.76c-8.46-7.79-17.62-14.34-29.15-16.92-5-1.11-8.93.39-12.46,3.7C154.6,538.8,152.58,541.79,150.18,545Z" transform="translate(-29.83 -226.3)"/><path class="cls-2" d="M159.68,552.89c1.11-2.82,3.24-4.93,5.05-7.25,1.11-1.43,2.52-1.56,4.15-1a41.73,41.73,0,0,1,14.65,7.78c-.12.29.05.79-.48.79C175.25,553.22,167.46,553.75,159.68,552.89Z" transform="translate(-29.83 -226.3)"/><path class="cls-3" d="M128.07,552.07c4.12-7.7,4.89-7.82,10.76-1.72.57.59,1,1.28,1.54,1.92.09.56-.15,1-.7,1-3.57.08-7.14.1-10.7,0C128.24,553.23,128,552.78,128.07,552.07Z" transform="translate(-29.83 -226.3)"/><path class="cls-4" d="M159.68,552.89l21.5.06c.83,0,1.69.13,2.35-.57.52.38,2.12,1.17.13,1.2-8,.15-16-.05-24-.13,0,0-.12-.16-.11-.23A1.23,1.23,0,0,1,159.68,552.89Z" transform="translate(-29.83 -226.3)"/><path class="cls-5" d="M128.07,552.07c4.08,1.57,8.19,1.2,12.3.2,1.12,1,.6,1.39-.54,1.4-3.78,0-7.56.05-11.34,0C126.65,553.65,127.15,552.88,128.07,552.07Z" transform="translate(-29.83 -226.3)"/><path class="cls-6" d="M326.61,540c-6.72,0-13.45.32-20.14-.06-19.15-1.11-38.32-.38-57.48-.68-5-.08-9.14-1.87-11.44-6.61-2.08-4.29-1.43-8.36,1.49-12a10.84,10.84,0,0,1,10.15-4.17,83.75,83.75,0,0,0,11.08.5c16.55.06,33.1-.28,49.64.17,9.45.25,18.91.15,28.33.7,7.42.43,13.46-2.1,19.43-6,13.4-8.69,22.05-20.94,27.58-35.68,1-2.79,2.1-5.64,4.85-7.36,4.11-2.57,9.17-2.68,12.48-.26,4.5,3.3,6.35,8,4.46,13.26-6.85,19-17.38,35.28-34.36,46.92-4.63,3.18-9.79,5.46-14.18,9a11.88,11.88,0,0,1-7.79,2.27c-8-.09-16.07,0-24.1,0Z" transform="translate(-29.83 -226.3)"/><path d="M334.16,338.23c6.83,0,13.66-.1,20.49,0,4.17.09,6.38,2.5,6.21,6.24-.17,3.52-2.53,5.61-6.56,5.52-8.75-.2-17.5-.67-26.25-.72a148.37,148.37,0,0,0-55.49,10,54.19,54.19,0,0,0-23.62,18.2c-6.53,8.6-4.53,17.71-.52,26.52,5.05,11.11,13.31,19.53,23.46,26.13,13.8,9,29,14.56,44.94,18.38.7.17,1.39.36,2.08.56,3.71,1.09,5.7,4,4.93,7.12a6,6,0,0,1-7.44,4.54c-23.65-5.65-46.27-13.7-64.1-31.11-12.21-11.92-20.46-25.93-19.12-44,.47-6.35,3.18-11.67,7-16.59,10.82-13.85,25.47-21.26,42.08-25.77A150,150,0,0,1,334.16,338.23Z" transform="translate(-29.83 -226.3)"/><path class="cls-7" d="M239.6,272.27c-3.21-.35-5.71.22-8.21-.62-4.63-1.56-8.46-6.72-8-11.13.57-5.94,5-10.44,10.72-10.67,9.68-.4,19.36-1.14,29.06-.7,3.15.14,6.15-.84,9.27-.75,7.44.22,12.67,4.9,12.71,11.43s-5.06,11.35-12.5,11.57c-4.19.12-8.4.12-12.59,0A184.58,184.58,0,0,0,239.6,272.27Z" transform="translate(-29.83 -226.3)"/><path class="cls-6" d="M278.37,398.15c3.79-.54,6.5,2.25,9.5,4,8,4.77,16.09,9.4,24.73,13,6.2,2.57,8.71,9,6.1,15.13-2.26,5.36-9.31,7.91-15.18,5.46a198.51,198.51,0,0,1-31.75-17.29,11.22,11.22,0,0,1-4.55-13.11C268.5,401.25,273.23,398.12,278.37,398.15Z" transform="translate(-29.83 -226.3)"/><path d="M113.05,358.26c.16,1.91.37,3.81.46,5.73.2,3.92-2.13,6.74-5.64,6.91-3.69.18-6.19-2.2-6.38-6.18-.94-19.37-2.37-38.69-4.82-57.94a6.07,6.07,0,1,1,12-1.45C110.68,322.93,112.39,340.55,113.05,358.26Z" transform="translate(-29.83 -226.3)"/><path d="M117.07,418.56c-15-.23-26.55-5.27-37-13.14a6.08,6.08,0,0,1-1.39-8.57c2.05-2.69,5.47-3.14,8.63-.92,7.21,5.07,14.82,9,23.73,10.31a24.25,24.25,0,0,0,16.82-3.29c1.45-.87,2.92-1.76,4.66-1.61a5.79,5.79,0,0,1,5.53,4.37,5.7,5.7,0,0,1-2.75,6.78C129.22,416.3,122.78,419,117.07,418.56Z" transform="translate(-29.83 -226.3)"/><path d="M168,329.41q0,13,0,25.9c0,4.43-2.2,6.94-6,6.9s-5.83-2.43-5.84-6.69q-.08-26.26,0-52.53c0-4.19,2.25-6.53,6-6.49s5.8,2.37,5.82,6.65c0,8.75,0,17.51,0,26.26Z" transform="translate(-29.83 -226.3)"/></svg>