<svg id="Layer_1" data-name="Layer 1" xmlns="http://www.w3.org/2000/svg" viewBox="0 0 324.02 32.33"><defs><style>.cls-1{fill:#2b3990;}.cls-2{fill:#1b75bc;}.cls-3{fill:none;stroke:#231f20;stroke-miterlimit:10;}</style></defs><title>platform-blue</title><polygon class="cls-1" points="323.52 0.5 323.52 31.83 290.85 0.5 323.52 0.5"/><polygon class="cls-2" points="323.52 31.83 297.12 31.83 264.45 0.5 290.85 0.5 323.52 31.83"/><polygon class="cls-1" points="297.12 31.83 270.73 31.83 238.06 0.5 264.45 0.5 297.12 31.83"/><polygon class="cls-2" points="270.73 31.83 244.33 31.83 211.66 0.5 238.06 0.5 270.73 31.83"/><polygon class="cls-1" points="244.33 31.83 217.93 31.83 185.27 0.5 211.66 0.5 244.33 31.83"/><polygon class="cls-2" points="217.93 31.83 191.54 31.83 158.87 0.5 185.27 0.5 217.93 31.83"/><polygon class="cls-1" points="191.54 31.83 165.14 31.83 132.48 0.5 158.87 0.5 191.54 31.83"/><polygon class="cls-2" points="165.14 31.83 138.75 31.83 106.08 0.5 132.48 0.5 165.14 31.83"/><polygon class="cls-1" points="138.75 31.83 112.35 31.83 79.69 0.5 106.08 0.5 138.75 31.83"/><polygon class="cls-2" points="112.35 31.83 85.96 31.83 53.29 0.5 79.69 0.5 112.35 31.83"/><polygon class="cls-1" points="85.96 31.83 59.56 31.83 26.9 0.5 53.29 0.5 85.96 31.83"/><polygon class="cls-2" points="59.56 31.83 33.17 31.83 0.5 0.5 26.9 0.5 59.56 31.83"/><polygon class="cls-1" points="33.17 31.83 0.5 31.83 0.5 0.5 33.17 31.83"/><line class="cls-3" x1="0.5" y1="0.5" x2="33.17" y2="31.83"/><line class="cls-3" x1="290.85" y1="0.5" x2="323.52" y2="31.83"/><line class="cls-3" x1="264.45" y1="0.5" x2="297.12" y2="31.83"/><line class="cls-3" x1="238.06" y1="0.5" x2="270.73" y2="31.83"/><line class="cls-3" x1="211.66" y1="0.5" x2="244.33" y2="31.83"/><line class="cls-3" x1="185.27" y1="0.5" x2="217.93" y2="31.83"/><line class="cls-3" x1="158.87" y1="0.5" x2="191.54" y2="31.83"/><line class="cls-3" x1="132.48" y1="0.5" x2="165.14" y2="31.83"/><line class="cls-3" x1="106.08" y1="0.5" x2="138.75" y2="31.83"/><line class="cls-3" x1="79.69" y1="0.5" x2="112.35" y2="31.83"/><line class="cls-3" x1="53.29" y1="0.5" x2="85.96" y2="31.83"/><line class="cls-3" x1="26.9" y1="0.5" x2="59.56" y2="31.83"/><polygon class="cls-3" points="323.52 31.83 297.12 31.83 270.73 31.83 244.33 31.83 217.93 31.83 191.54 31.83 165.14 31.83 138.75 31.83 112.35 31.83 85.96 31.83 59.56 31.83 33.17 31.83 0.5 31.83 0.5 0.5 26.9 0.5 53.29 0.5 79.69 0.5 106.08 0.5 132.48 0.5 158.87 0.5 185.27 0.5 211.66 0.5 238.06 0.5 264.45 0.5 290.85 0.5 323.52 0.5 323.52 31.83"/></svg>