<svg id="Layer_1" data-name="Layer 1" xmlns="http://www.w3.org/2000/svg" viewBox="0 0 294.03 530.95"><defs><style>.cls-1{fill:#bcbec0;}.cls-2{fill:#939598;}.cls-3{fill:#fff;}.cls-4{fill:#231f20;}.cls-5{fill:#ed1c24;}.cls-6{fill:#d1d3d4;}.cls-7{fill:#726658;}.cls-8{fill:#603913;}.cls-9{fill:none;}.cls-10{fill:#808285;}.cls-11{fill:#00a651;}</style></defs><title>robob</title><polygon class="cls-1" points="253.13 0 253.13 108.22 231.34 108.22 231.34 86.65 231.56 86.65 231.56 21.58 88.41 21.58 88.41 21.92 66.83 21.92 66.83 0 253.13 0"/><polygon class="cls-2" points="253.13 108.22 231.34 130.14 231.34 108.22 253.13 108.22"/><polygon class="cls-3" points="231.56 21.58 231.56 86.65 231.34 86.65 231.34 21.92 88.41 21.92 88.41 21.58 231.56 21.58"/><polygon class="cls-2" points="231.34 108.22 231.34 130.14 45.05 130.14 66.83 108.22 231.34 108.22"/><polygon class="cls-1" points="231.34 86.65 231.34 108.22 66.83 108.22 66.83 21.92 88.41 21.92 88.41 86.65 231.34 86.65"/><path class="cls-4" d="M368.86,78.52v64.73H225.92V78.52Zm-43.19,47.26V95.64a5.14,5.14,0,0,0-10.28,0v30.14a5.14,5.14,0,0,0,10.28,0Zm-58.34,0V95.64a5.14,5.14,0,0,0-10.27,0v30.14a5.14,5.14,0,1,0,10.27,0Z" transform="translate(-137.52 -56.6)"/><path class="cls-5" d="M325.67,95.64v30.14a5.14,5.14,0,0,1-10.28,0V95.64a5.14,5.14,0,0,1,10.28,0Z" transform="translate(-137.52 -56.6)"/><path class="cls-5" d="M267.33,95.64v30.14a5.14,5.14,0,1,1-10.27,0V95.64a5.14,5.14,0,0,1,10.27,0Z" transform="translate(-137.52 -56.6)"/><polygon class="cls-2" points="66.83 21.92 66.83 108.22 45.05 130.14 45.05 21.92 66.83 21.92"/><polygon class="cls-2" points="66.83 0 66.83 21.92 45.05 21.92 66.83 0"/><polygon class="cls-6" points="169.99 119.18 169.99 178.41 158.69 178.41 158.69 124.67 149.49 124.67 149.49 119.18 169.99 119.18"/><polygon class="cls-2" points="169.99 178.41 158.69 183.9 158.69 178.41 169.99 178.41"/><polygon class="cls-2" points="158.69 178.41 158.69 183.9 138.19 183.9 138.19 124.67 149.49 124.67 149.49 178.41 158.69 178.41"/><rect class="cls-6" x="149.48" y="124.67" width="9.21" height="53.74"/><circle class="cls-4" cx="155.86" cy="456.88" r="74.07"/><rect class="cls-7" x="132.27" y="340.23" width="42.68" height="121.5"/><circle class="cls-8" cx="153.02" cy="447.6" r="6.38"/><line class="cls-9" x1="45.05" y1="200.83" x2="66.83" y2="179.4"/><polygon class="cls-1" points="294.03 167.77 294.03 332.25 270.22 332.25 270.22 192.5 23.81 192.5 23.81 167.77 294.03 167.77"/><polygon class="cls-10" points="294.03 332.25 270.22 356.98 270.22 332.25 294.03 332.25"/><polygon class="cls-10" points="270.22 332.25 270.22 356.98 0 356.98 0 192.5 23.81 192.5 23.81 332.25 270.22 332.25"/><rect class="cls-1" x="23.81" y="192.5" width="246.41" height="139.75"/><polygon class="cls-10" points="23.81 167.77 23.81 192.5 0 192.5 23.81 167.77"/><rect class="cls-11" x="76.18" y="192.03" width="43.36" height="43.36"/><rect class="cls-4" x="81.22" y="198.04" width="33.29" height="5.13" rx="1.89" ry="1.89"/><rect class="cls-4" x="81.22" y="210.67" width="33.29" height="5.13" rx="1.89" ry="1.89"/><rect class="cls-4" x="81.22" y="223.29" width="33.29" height="5.13" rx="1.89" ry="1.89"/><rect class="cls-11" x="138.3" y="192.03" width="43.36" height="43.36"/><rect class="cls-4" x="143.34" y="198.04" width="33.29" height="5.13" rx="1.89" ry="1.89"/><rect class="cls-4" x="143.34" y="210.67" width="33.29" height="5.13" rx="1.89" ry="1.89"/><rect class="cls-4" x="143.34" y="223.29" width="33.29" height="5.13" rx="1.89" ry="1.89"/><rect class="cls-11" x="198.88" y="192.03" width="43.36" height="43.36"/><rect class="cls-4" x="203.91" y="198.04" width="33.29" height="5.13" rx="1.89" ry="1.89"/><rect class="cls-4" x="203.91" y="210.67" width="33.29" height="5.13" rx="1.89" ry="1.89"/><rect class="cls-4" x="203.91" y="223.29" width="33.29" height="5.13" rx="1.89" ry="1.89"/><rect class="cls-11" x="198.88" y="250.02" width="43.36" height="43.36"/><rect class="cls-4" x="203.91" y="256.03" width="33.29" height="5.13" rx="1.89" ry="1.89"/><rect class="cls-4" x="203.91" y="268.66" width="33.29" height="5.13" rx="1.89" ry="1.89"/><rect class="cls-4" x="203.91" y="281.28" width="33.29" height="5.13" rx="1.89" ry="1.89"/><rect class="cls-11" x="137.63" y="249.89" width="43.36" height="43.36"/><rect class="cls-4" x="142.66" y="255.91" width="33.29" height="5.13" rx="1.89" ry="1.89"/><rect class="cls-4" x="142.66" y="268.53" width="33.29" height="5.13" rx="1.89" ry="1.89"/><rect class="cls-4" x="142.66" y="281.16" width="33.29" height="5.13" rx="1.89" ry="1.89"/><rect class="cls-11" x="76.18" y="250.02" width="43.36" height="43.36"/><rect class="cls-4" x="81.22" y="256.03" width="33.29" height="5.13" rx="1.89" ry="1.89"/><rect class="cls-4" x="81.22" y="268.66" width="33.29" height="5.13" rx="1.89" ry="1.89"/><rect class="cls-4" x="81.22" y="281.28" width="33.29" height="5.13" rx="1.89" ry="1.89"/></svg>